<svg width="14" height="14" viewBox="0 0 14 14" fill="none" xmlns="http://www.w3.org/2000/svg">
<g clip-path="url(#clip0_39_157)">
<path d="M13.6544 0.150827C13.2856 0.0428744 4.26251 -0.855475 1.09367 3.42567C-0.309771 5.32223 -0.330853 7.9221 1.02334 11.1525C0.679825 11.8655 0.379099 12.6166 0.134017 13.4091C0.0595057 13.6499 0.194283 13.9052 0.434825 13.9795C0.479669 13.9934 0.525087 14 0.569931 14C0.764399 14 0.944949 13.8744 1.00521 13.6787C3.42043 5.87028 11.2694 2.09267 13.6763 1.13835C13.9105 1.0454 14.2236 0.317405 13.6544 0.150827Z" fill="#84829A"/>
<path d="M2.47186 12.1298C3.77826 12.6778 5.08447 12.9587 6.29916 12.9587C7.39097 12.9587 8.40916 12.7342 9.28657 12.279C11.0524 11.363 12.1315 9.61081 12.407 7.21132C12.6877 4.7659 13.0372 3.23416 13.3288 2.29712C10.7335 3.49428 5.16872 6.5974 2.47186 12.1298Z" fill="#84829A"/>
</g>
<defs>
<clipPath id="clip0_39_157">
<rect width="14" height="14" fill="white"/>
</clipPath>
</defs>
</svg>
